<svg width="20" height="20" viewBox="0 0 20 20" fill="none" xmlns="http://www.w3.org/2000/svg">
<path d="M6.6574 3.75253L12.7474 10L6.6574 16.2475C6.54837 16.3591 6.48733 16.509 6.48733 16.665C6.48733 16.8211 6.54837 16.9709 6.6574 17.0825C6.71036 17.1366 6.77356 17.1795 6.84332 17.2088C6.91308 17.2381 6.98798 17.2532 7.06365 17.2532C7.13932 17.2532 7.21422 17.2381 7.28398 17.2088C7.35374 17.1795 7.41694 17.1366 7.4699 17.0825L13.9499 10.4363C14.0637 10.3196 14.1273 10.163 14.1273 10C14.1273 9.83704 14.0637 9.68049 13.9499 9.56378L7.47115 2.91753C7.41816 2.8631 7.35479 2.81983 7.2848 2.7903C7.21481 2.76076 7.13962 2.74554 7.06365 2.74554C6.98768 2.74554 6.91248 2.76076 6.8425 2.7903C6.77251 2.81983 6.70914 2.8631 6.65615 2.91753C6.54712 3.02915 6.48608 3.17899 6.48608 3.33503C6.48608 3.49106 6.54712 3.6409 6.65615 3.75253H6.6574Z" fill="#3B485B"/>
</svg>
