<svg width="32" height="32" viewBox="0 0 32 32" fill="none" xmlns="http://www.w3.org/2000/svg">
<path d="M23.1201 7.27999C22.8036 7.27999 22.4943 7.37383 22.2312 7.54964C21.968 7.72545 21.763 7.97533 21.6419 8.2677C21.5208 8.56006 21.4891 8.88176 21.5508 9.19213C21.6126 9.5025 21.7649 9.7876 21.9887 10.0114C22.2125 10.2351 22.4976 10.3875 22.8079 10.4492C23.1183 10.511 23.44 10.4793 23.7324 10.3582C24.0247 10.2371 24.2746 10.032 24.4504 9.7689C24.6262 9.50578 24.7201 9.19644 24.7201 8.87999C24.7201 8.45564 24.5515 8.04868 24.2515 7.74862C23.9514 7.44856 23.5444 7.27999 23.1201 7.27999ZM29.2534 10.5067C29.2275 9.40039 29.0203 8.30586 28.6401 7.26666C28.3011 6.3775 27.7734 5.57236 27.0934 4.90666C26.4332 4.22322 25.6262 3.69889 24.7334 3.37332C23.697 2.98154 22.6012 2.7696 21.4934 2.74666C20.0801 2.66666 19.6267 2.66666 16.0001 2.66666C12.3734 2.66666 11.9201 2.66666 10.5067 2.74666C9.39895 2.7696 8.30321 2.98154 7.26675 3.37332C6.37565 3.70219 5.56933 4.22607 4.90675 4.90666C4.22332 5.56689 3.69898 6.37391 3.37341 7.26666C2.98163 8.30311 2.76969 9.39886 2.74675 10.5067C2.66675 11.92 2.66675 12.3733 2.66675 16C2.66675 19.6267 2.66675 20.08 2.74675 21.4933C2.76969 22.6011 2.98163 23.6969 3.37341 24.7333C3.69898 25.6261 4.22332 26.4331 4.90675 27.0933C5.56933 27.7739 6.37565 28.2978 7.26675 28.6267C8.30321 29.0184 9.39895 29.2304 10.5067 29.2533C11.9201 29.3333 12.3734 29.3333 16.0001 29.3333C19.6267 29.3333 20.0801 29.3333 21.4934 29.2533C22.6012 29.2304 23.697 29.0184 24.7334 28.6267C25.6262 28.3011 26.4332 27.7768 27.0934 27.0933C27.7764 26.4301 28.3045 25.6242 28.6401 24.7333C29.0203 23.6941 29.2275 22.5996 29.2534 21.4933C29.2534 20.08 29.3334 19.6267 29.3334 16C29.3334 12.3733 29.3334 11.92 29.2534 10.5067ZM26.8534 21.3333C26.8437 22.1797 26.6904 23.0183 26.4001 23.8133C26.1872 24.3936 25.8453 24.9179 25.4001 25.3467C24.9676 25.7873 24.4444 26.1286 23.8667 26.3467C23.0717 26.637 22.2331 26.7903 21.3867 26.8C20.0534 26.8667 19.5601 26.88 16.0534 26.88C12.5467 26.88 12.0534 26.88 10.7201 26.8C9.84127 26.8164 8.96621 26.6811 8.13341 26.4C7.58112 26.1708 7.08189 25.8304 6.66675 25.4C6.2242 24.9717 5.88654 24.4469 5.68008 23.8667C5.35456 23.0602 5.17401 22.2026 5.14675 21.3333C5.14675 20 5.06675 19.5067 5.06675 16C5.06675 12.4933 5.06675 12 5.14675 10.6667C5.15272 9.8014 5.31068 8.94392 5.61341 8.13332C5.84814 7.57054 6.20843 7.06887 6.66675 6.66666C7.07183 6.20821 7.57246 5.84412 8.13341 5.59999C8.94615 5.30671 9.80274 5.15343 10.6667 5.14666C12.0001 5.14666 12.4934 5.06666 16.0001 5.06666C19.5067 5.06666 20.0001 5.06666 21.3334 5.14666C22.1798 5.15636 23.0184 5.30965 23.8134 5.59999C24.4193 5.82486 24.9631 6.19045 25.4001 6.66666C25.837 7.07623 26.1784 7.57697 26.4001 8.13332C26.6964 8.94523 26.8498 9.80236 26.8534 10.6667C26.9201 12 26.9334 12.4933 26.9334 16C26.9334 19.5067 26.9201 20 26.8534 21.3333ZM16.0001 9.15999C14.6478 9.16263 13.3267 9.56602 12.2036 10.3192C11.0805 11.0724 10.2059 12.1416 9.69026 13.3917C9.1746 14.6417 9.04105 16.0166 9.30647 17.3426C9.5719 18.6685 10.2244 19.886 11.1815 20.8413C12.1386 21.7966 13.3574 22.4467 14.6839 22.7095C16.0104 22.9724 17.385 22.8361 18.634 22.318C19.8831 21.7999 20.9506 20.9232 21.7016 19.7987C22.4526 18.6742 22.8534 17.3522 22.8534 16C22.8552 15.1001 22.679 14.2088 22.3351 13.3773C21.9911 12.5457 21.4862 11.7904 20.8492 11.1547C20.2123 10.519 19.456 10.0156 18.6238 9.67323C17.7916 9.3309 16.8999 9.15647 16.0001 9.15999ZM16.0001 20.44C15.1219 20.44 14.2635 20.1796 13.5333 19.6917C12.8032 19.2038 12.2341 18.5104 11.8981 17.6991C11.562 16.8878 11.4741 15.9951 11.6454 15.1338C11.8167 14.2725 12.2396 13.4814 12.8605 12.8604C13.4815 12.2395 14.2726 11.8166 15.1339 11.6453C15.9952 11.474 16.8879 11.5619 17.6992 11.898C18.5105 12.234 19.2039 12.8031 19.6918 13.5333C20.1797 14.2634 20.4401 15.1218 20.4401 16C20.4401 16.5831 20.3252 17.1604 20.1021 17.6991C19.879 18.2378 19.5519 18.7273 19.1396 19.1395C18.7273 19.5518 18.2379 19.8789 17.6992 20.102C17.1605 20.3251 16.5831 20.44 16.0001 20.44Z" fill="#3B485B"/>
</svg>
