<svg width="24" height="25" viewBox="0 0 24 25" fill="none" xmlns="http://www.w3.org/2000/svg">
<path d="M2.57141 9.17764L11.7034 13.9271C11.795 13.9747 11.8967 13.9996 12 13.9996C12.1032 13.9996 12.205 13.9747 12.2966 13.9271L21.4286 9.1785V17.4285C21.4286 18.14 21.1564 18.8246 20.6677 19.3418C20.179 19.859 19.511 20.1696 18.8006 20.2099L18.6428 20.2142H5.35713C4.64558 20.2143 3.96099 19.942 3.44378 19.4534C2.92658 18.9647 2.61598 18.2966 2.5757 17.5862L2.57141 17.4285V9.17764ZM5.35713 4.78564H18.6428C19.3544 4.7856 20.039 5.05783 20.5562 5.54651C21.0734 6.03518 21.384 6.70324 21.4243 7.41364L21.4286 7.57136V7.72907L12 12.6319L2.57141 7.72907V7.57136C2.57136 6.85981 2.8436 6.17522 3.33227 5.65802C3.82094 5.14082 4.48901 4.83021 5.19941 4.78993L5.35713 4.78564Z" fill="#D9D9D9"/>
</svg>
