<svg width="32" height="33" viewBox="0 0 32 33" fill="none" xmlns="http://www.w3.org/2000/svg">
<path d="M23.12 7.78008C22.8036 7.78008 22.4942 7.87392 22.2311 8.04973C21.968 8.22554 21.7629 8.47543 21.6418 8.76779C21.5207 9.06015 21.489 9.38186 21.5508 9.69223C21.6125 10.0026 21.7649 10.2877 21.9886 10.5115C22.2124 10.7352 22.4975 10.8876 22.8079 10.9493C23.1182 11.0111 23.44 10.9794 23.7323 10.8583C24.0247 10.7372 24.2746 10.5321 24.4504 10.269C24.6262 10.0059 24.72 9.69653 24.72 9.38008C24.72 8.95573 24.5514 8.54877 24.2514 8.24871C23.9513 7.94865 23.5444 7.78008 23.12 7.78008ZM29.2534 11.0067C29.2274 9.90048 29.0202 8.80595 28.64 7.76675C28.301 6.87759 27.7733 6.07245 27.0934 5.40675C26.4331 4.72332 25.6261 4.19898 24.7334 3.87341C23.6969 3.48163 22.6012 3.26969 21.4934 3.24675C20.08 3.16675 19.6267 3.16675 16 3.16675C12.3734 3.16675 11.92 3.16675 10.5067 3.24675C9.39889 3.26969 8.30314 3.48163 7.26669 3.87341C6.37559 4.20228 5.56927 4.72616 4.90669 5.40675C4.22325 6.06698 3.69892 6.874 3.37335 7.76675C2.98157 8.80321 2.76963 9.89895 2.74669 11.0067C2.66669 12.4201 2.66669 12.8734 2.66669 16.5001C2.66669 20.1267 2.66669 20.5801 2.74669 21.9934C2.76963 23.1012 2.98157 24.197 3.37335 25.2334C3.69892 26.1262 4.22325 26.9332 4.90669 27.5934C5.56927 28.274 6.37559 28.7979 7.26669 29.1267C8.30314 29.5185 9.39889 29.7305 10.5067 29.7534C11.92 29.8334 12.3734 29.8334 16 29.8334C19.6267 29.8334 20.08 29.8334 21.4934 29.7534C22.6012 29.7305 23.6969 29.5185 24.7334 29.1267C25.6261 28.8012 26.4331 28.2768 27.0934 27.5934C27.7763 26.9302 28.3045 26.1243 28.64 25.2334C29.0202 24.1942 29.2274 23.0997 29.2534 21.9934C29.2534 20.5801 29.3334 20.1267 29.3334 16.5001C29.3334 12.8734 29.3334 12.4201 29.2534 11.0067ZM26.8534 21.8334C26.8436 22.6798 26.6904 23.5184 26.4 24.3134C26.1871 24.8937 25.8452 25.418 25.4 25.8467C24.9675 26.2874 24.4443 26.6287 23.8667 26.8467C23.0716 27.1371 22.233 27.2904 21.3867 27.3001C20.0534 27.3667 19.56 27.3801 16.0534 27.3801C12.5467 27.3801 12.0534 27.3801 10.72 27.3001C9.84121 27.3165 8.96615 27.1812 8.13335 26.9001C7.58106 26.6708 7.08183 26.3305 6.66669 25.9001C6.22414 25.4717 5.88648 24.947 5.68002 24.3667C5.3545 23.5603 5.17394 22.7027 5.14669 21.8334C5.14669 20.5001 5.06669 20.0067 5.06669 16.5001C5.06669 12.9934 5.06669 12.5001 5.14669 11.1667C5.15266 10.3015 5.31062 9.44401 5.61335 8.63341C5.84808 8.07063 6.20837 7.56896 6.66669 7.16675C7.07177 6.70831 7.5724 6.34421 8.13335 6.10008C8.94609 5.80681 9.80268 5.65352 10.6667 5.64675C12 5.64675 12.4934 5.56675 16 5.56675C19.5067 5.56675 20 5.56675 21.3334 5.64675C22.1797 5.65646 23.0183 5.80974 23.8134 6.10008C24.4193 6.32495 24.9631 6.69054 25.4 7.16675C25.837 7.57632 26.1784 8.07706 26.4 8.63341C26.6964 9.44533 26.8497 10.3025 26.8534 11.1667C26.92 12.5001 26.9334 12.9934 26.9334 16.5001C26.9334 20.0067 26.92 20.5001 26.8534 21.8334ZM16 9.66008C14.6478 9.66272 13.3266 10.0661 12.2036 10.8193C11.0805 11.5725 10.2059 12.6417 9.6902 13.8918C9.17454 15.1418 9.04099 16.5167 9.30641 17.8427C9.57184 19.1686 10.2243 20.3861 11.1815 21.3414C12.1386 22.2966 13.3574 22.9468 14.6838 23.2096C16.0103 23.4725 17.3849 23.3362 18.634 22.8181C19.883 22.3 20.9505 21.4233 21.7015 20.2988C22.4525 19.1742 22.8533 17.8523 22.8534 16.5001C22.8551 15.6002 22.679 14.7089 22.335 13.8774C21.9911 13.0458 21.4861 12.2905 20.8492 11.6548C20.2123 11.0191 19.456 10.5157 18.6237 10.1733C17.7915 9.83099 16.8999 9.65656 16 9.66008ZM16 20.9401C15.1219 20.9401 14.2634 20.6797 13.5333 20.1918C12.8031 19.7039 12.234 19.0105 11.898 18.1992C11.5619 17.3879 11.474 16.4952 11.6453 15.6339C11.8167 14.7726 12.2395 13.9815 12.8605 13.3605C13.4814 12.7396 14.2725 12.3167 15.1338 12.1454C15.9951 11.9741 16.8878 12.062 17.6991 12.3981C18.5104 12.7341 19.2039 13.3032 19.6917 14.0333C20.1796 14.7635 20.44 15.6219 20.44 16.5001C20.44 17.0831 20.3252 17.6605 20.102 18.1992C19.8789 18.7379 19.5519 19.2273 19.1396 19.6396C18.7273 20.0519 18.2378 20.379 17.6991 20.6021C17.1604 20.8252 16.5831 20.9401 16 20.9401Z" fill="#D9DBDA"/>
</svg>
