<svg width="32" height="33" viewBox="0 0 32 33" fill="none" xmlns="http://www.w3.org/2000/svg">
<path d="M25.4 7.04658C24.1776 5.81182 22.7216 4.83281 21.1169 4.16665C19.5121 3.5005 17.7908 3.16053 16.0533 3.16658C8.77334 3.16658 2.84 9.09992 2.84 16.3799C2.84 18.7132 3.45334 20.9799 4.6 22.9799L2.73334 29.8333L9.73334 27.9933C11.6667 29.0466 13.84 29.6066 16.0533 29.6066C23.3333 29.6066 29.2667 23.6733 29.2667 16.3932C29.2667 12.8599 27.8933 9.53992 25.4 7.04658ZM16.0533 27.3666C14.08 27.3666 12.1467 26.8333 10.4533 25.8333L10.0533 25.5933L5.89334 26.6866L7 22.6333L6.73334 22.2199C5.637 20.4692 5.05486 18.4456 5.05334 16.3799C5.05334 10.3266 9.98667 5.39325 16.04 5.39325C18.9733 5.39325 21.7333 6.53992 23.8 8.61992C24.8233 9.63854 25.6343 10.8501 26.1859 12.1845C26.7375 13.5188 27.0187 14.9494 27.0133 16.3932C27.04 22.4466 22.1067 27.3666 16.0533 27.3666ZM22.08 19.1532C21.7467 18.9932 20.12 18.1933 19.8267 18.0732C19.52 17.9666 19.3067 17.9132 19.08 18.2332C18.8533 18.5666 18.2267 19.3132 18.04 19.5266C17.8533 19.7533 17.6533 19.7799 17.32 19.6066C16.9867 19.4466 15.92 19.0866 14.6667 17.9666C13.68 17.0866 13.0267 16.0066 12.8267 15.6733C12.64 15.3399 12.8 15.1666 12.9733 14.9932C13.12 14.8466 13.3067 14.6066 13.4667 14.4199C13.6267 14.2332 13.6933 14.0866 13.8 13.8732C13.9067 13.6466 13.8533 13.4599 13.7733 13.2999C13.6933 13.1399 13.0267 11.5133 12.76 10.8466C12.4933 10.2066 12.2133 10.2866 12.0133 10.2733H11.3733C11.1467 10.2733 10.8 10.3533 10.4933 10.6866C10.2 11.0199 9.34667 11.8199 9.34667 13.4466C9.34667 15.0733 10.5333 16.6466 10.6933 16.8599C10.8533 17.0866 13.0267 20.4199 16.3333 21.8466C17.12 22.1933 17.7333 22.3933 18.2133 22.5399C19 22.7933 19.72 22.7532 20.2933 22.6732C20.9333 22.5799 22.2533 21.8732 22.52 21.0999C22.8 20.3266 22.8 19.6733 22.7067 19.5266C22.6133 19.3799 22.4133 19.3132 22.08 19.1532Z" fill="#D9DBDA"/>
</svg>
